# Blender 4.1.1
# www.blender.org
o Cube.007
v 0.189189 0.031185 -1.639063
v 0.189189 -0.018795 -1.639063
v 0.297887 0.031185 0.060320
v 0.297887 -0.018795 0.060320
v 0.489189 0.031185 -1.639063
v 0.489189 -0.018795 -1.639063
v 0.462237 0.031185 0.060320
v 0.462237 -0.018795 0.060320
v 0.230444 0.031185 -0.994081
v 0.230444 -0.018795 -0.994081
v 0.478960 0.031185 -0.994081
v 0.478960 -0.018795 -0.994081
v -0.364137 0.031185 -0.525011
v -0.360656 0.031185 -0.837698
v -0.360656 -0.018795 -0.837698
v -0.364137 -0.018795 -0.525011
v 0.099113 -0.018795 -1.172266
v -0.050157 -0.018795 -1.013765
v -0.157433 -0.018815 -0.932909
v -0.237113 -0.018795 -0.883527
v -0.237113 0.031185 -0.883527
v -0.166584 0.023785 -0.932672
v -0.050157 0.031185 -1.013765
v 0.099113 0.031185 -1.172266
v 0.193443 0.031185 -0.934229
v -0.008342 0.031185 -0.755487
v -0.137764 0.023787 -0.646234
v -0.231646 0.031185 -0.590063
v -0.231646 -0.018795 -0.590063
v -0.128613 -0.018813 -0.646471
v -0.008342 -0.018795 -0.755487
v 0.193443 -0.018795 -0.934229
v -0.370003 0.031185 -1.403921
v -0.370003 -0.018795 -1.403921
v -0.167848 0.031185 -0.079668
v -0.167848 -0.018795 -0.079668
v -0.794103 0.031185 -0.523733
v -0.790622 0.031185 -0.548097
v -0.790622 -0.018795 -0.548097
v -0.794103 -0.018795 -0.523733
v 0.822550 0.031185 -0.000993
v 0.822550 -0.018794 -0.000993
v -0.051326 0.031185 -0.011434
v -0.051326 -0.018795 -0.011434
v 0.360179 -0.018795 1.360937
v 0.360179 0.031185 1.360937
v 0.399945 0.031185 1.360937
v 0.399945 -0.018795 1.360937
vn -0.9980 -0.0000 0.0638
vn -0.0000 -1.0000 -0.0000
vn 0.9999 -0.0000 0.0159
vn -0.0000 -0.0000 -1.0000
vn -0.0000 1.0000 -0.0000
vn -0.3478 -0.0000 -0.9376
vn 0.4407 -0.0000 0.8976
vn -0.0001 -1.0000 -0.0000
vn -0.0538 0.9985 0.0064
vn -0.0557 0.9984 0.0080
vn -0.0526 0.9986 0.0053
vn 0.0806 0.9967 -0.0027
vn 0.0941 0.9955 -0.0084
vn 0.0777 0.9970 -0.0014
vn 0.0001 -1.0000 -0.0000
vn 0.8506 -0.0000 0.5258
vn 0.6631 -0.0000 0.7486
vn 0.6663 0.0223 0.7453
vn 0.6422 0.1096 0.7587
vn 0.6716 -0.0000 0.7409
vn 0.4870 0.0744 0.8703
vn 0.5055 0.0232 0.8625
vn 0.4779 0.0978 0.8729
vn -0.9819 -0.0000 -0.1895
vn -0.7280 -0.0000 -0.6856
vn -0.5947 -0.0235 -0.8036
vn -0.5714 -0.0927 -0.8154
vn -0.5627 -0.1163 -0.8185
vn -0.5388 -0.0759 -0.8390
vn -0.5584 -0.0318 -0.8289
vn -0.5717 -0.0000 -0.8205
vn -0.5784 -0.0000 0.8157
vn -0.9899 -0.0000 -0.1414
vn -0.8975 -0.0000 -0.4411
vn -0.0000 -0.0000 1.0000
vn 0.9551 -0.0000 0.2964
vn -0.9579 -0.0000 0.2872
vn 0.9999 -0.0000 -0.0165
vn 0.9151 -0.0000 -0.4033
vn 0.2013 -0.0000 -0.9795
vn -0.1678 -0.0000 -0.9858
vn -0.0570 0.9983 0.0092
vn 0.0976 0.9952 -0.0098
vn 0.6350 0.1322 0.7611
vn 0.5134 -0.0000 0.8581
vn -0.6019 -0.0000 -0.7986
vn -0.5237 -0.1078 -0.8450
vt 0.968359 0.770524
vt 0.984176 0.560098
vt 0.984176 0.770524
vt 0.352754 0.544243
vt 0.239020 0.941148
vt 0.301786 0.533871
vt 0.936726 0.178252
vt 0.952541 0.000000
vt 0.952541 0.178133
vt 0.984176 0.785302
vt 0.999994 0.690666
vt 0.999994 0.785302
vt 0.815778 0.741033
vt 0.936726 0.924725
vt 0.843690 0.943658
vt 0.347416 0.202625
vt 0.468364 0.018934
vt 0.424485 0.218309
vt 0.770149 0.409787
vt 0.892848 0.725349
vt 0.936726 0.469459
vt 0.952541 0.469340
vt 0.984183 0.353709
vt 1.000000 0.313573
vt 1.000000 0.353709
vt 0.187071 0.037630
vt 0.154235 0.213817
vt 0.002617 0.276491
vt 0.968768 0.129556
vt 0.984175 0.090669
vt 0.984584 0.129532
vt 0.178614 0.298755
vt 0.195440 0.207401
vt 0.646978 0.644903
vt 0.622598 0.729841
vt 0.601784 0.633090
vt 0.786296 0.804580
vt 0.800526 0.724807
vt 0.730001 0.764847
vt 0.726669 0.682111
vt 0.688783 0.747045
vt 0.679643 0.656396
vt 0.663803 0.736257
vt 0.317933 0.139078
vt 0.375328 0.000000
vt 0.332164 0.218851
vt 0.261638 0.178811
vt 0.258306 0.261547
vt 0.223267 0.197116
vt 0.214127 0.287764
vt 0.969892 0.313573
vt 0.985665 0.291288
vt 0.985708 0.313548
vt 0.969849 0.291312
vt 0.985178 0.210298
vt 0.969362 0.210322
vt 0.984898 0.161346
vt 0.971382 0.159848
vt 0.936726 0.971584
vt 0.952543 0.909388
vt 0.952543 0.971584
vt 0.984183 0.467108
vt 1.000000 0.415994
vt 1.000000 0.467108
vt 0.984176 0.380099
vt 0.997658 0.377206
vt 0.984176 0.556536
vt 0.968359 0.313573
vt 0.984176 0.313573
vt 0.468364 0.659830
vt 0.634551 0.482593
vt 0.968359 0.560098
vt 0.133421 0.310567
vt 0.166188 0.461065
vt 0.000000 0.283828
vt 0.470981 0.667166
vt 0.655434 0.906027
vt 0.984176 0.770524
vt 0.968359 0.924950
vt 0.968359 0.770524
vt 0.198017 0.489579
vt 0.468364 0.547969
vt 0.251352 0.943658
vt 0.952541 0.010266
vt 0.968359 0.000000
vt 0.968359 0.010266
vt 0.821117 0.399415
vt 0.719715 0.000000
vt 0.936726 0.395689
vt 0.936726 0.469508
vt 0.952542 0.909339
vt 0.936726 0.909388
vt 0.666380 0.454079
vt 0.707382 0.002510
vt 0.952541 0.367723
vt 0.968359 0.367723
vt 0.952541 0.367851
vt 0.968357 0.521191
vt 0.952541 0.521319
vt 0.969892 0.000025
vt 0.968359 0.090693
vt 0.984176 0.690666
vt 0.999994 0.582328
vt 0.999994 0.582328
vt 0.984176 0.467108
vt 0.999994 0.467108
vt 0.936726 0.000119
vt 0.984183 0.313573
vt 0.936726 0.909388
vt 0.984183 0.415994
vt 0.968359 0.556536
vt 0.984176 0.924950
vt 0.952542 0.469459
vt 0.968357 0.367723
vt 0.985708 0.000000
vt 0.984176 0.582328
vt 0.984176 0.582328
s 1
f 10/1/1 3/2/1 9/3/1
f 8/4/2 45/5/2 4/6/2
f 12/7/3 5/8/3 11/9/3
f 6/10/4 1/11/4 5/12/4
f 9/13/5 5/14/5 1/15/5
f 10/16/2 6/17/2 12/18/2
f 4/6/2 12/18/2 8/4/2
f 3/19/5 11/20/5 9/13/5
f 8/21/3 11/9/3 7/22/3
f 20/23/6 14/24/6 21/25/6
f 34/26/2 15/27/2 39/28/2
f 28/29/7 16/30/7 29/31/7
f 29/32/8 15/27/2 20/33/8
f 28/34/5 14/35/5 13/36/5
f 9/13/5 24/37/5 25/38/5
f 25/38/5 23/39/5 26/40/5
f 26/40/9 22/41/10 27/42/11
f 27/42/12 21/43/13 28/34/14
f 10/16/2 17/44/2 2/45/2
f 32/46/2 18/47/15 17/44/2
f 31/48/15 19/49/2 18/47/15
f 30/50/8 20/33/8 19/49/2
f 9/51/16 32/52/16 10/53/16
f 25/54/17 31/55/17 32/52/17
f 26/56/18 30/57/19 31/55/20
f 27/58/21 29/31/22 30/57/23
f 2/59/24 24/60/24 1/61/24
f 17/62/25 23/63/25 24/64/25
f 23/63/26 19/65/27 22/66/28
f 22/66/29 20/23/30 21/25/31
f 37/67/32 36/68/32 35/69/32
f 13/36/5 37/70/5 35/71/5
f 39/72/33 37/67/33 38/2/33
f 16/73/2 39/28/2 15/27/2
f 36/74/2 40/75/2 16/73/2
f 13/36/5 38/76/5 37/70/5
f 14/35/5 33/77/5 38/76/5
f 34/78/34 38/79/34 33/80/34
f 44/81/2 4/6/2 45/5/2
f 42/82/2 48/83/2 8/4/2
f 45/84/35 47/85/35 46/86/35
f 7/87/5 47/88/5 41/89/5
f 47/90/36 42/91/36 41/92/36
f 3/19/5 43/93/5 46/94/5
f 44/95/37 46/86/37 43/96/37
f 3/19/5 47/88/5 7/87/5
f 34/97/38 14/98/38 15/99/38
f 35/100/39 16/30/39 13/101/39
f 4/102/40 43/103/40 3/11/40
f 41/104/41 8/105/41 7/106/41
f 10/1/1 4/72/1 3/2/1
f 8/4/2 48/83/2 45/5/2
f 12/7/3 6/107/3 5/8/3
f 6/10/4 2/102/4 1/11/4
f 9/13/5 11/20/5 5/14/5
f 10/16/2 2/45/2 6/17/2
f 4/6/2 10/16/2 12/18/2
f 3/19/5 7/87/5 11/20/5
f 8/21/3 12/7/3 11/9/3
f 20/23/6 15/108/6 14/24/6
f 28/29/7 13/101/7 16/30/7
f 29/32/8 16/73/2 15/27/2
f 28/34/5 21/43/5 14/35/5
f 9/13/5 1/15/5 24/37/5
f 25/38/5 24/37/5 23/39/5
f 26/40/9 23/39/42 22/41/10
f 27/42/12 22/41/43 21/43/13
f 10/16/2 32/46/2 17/44/2
f 32/46/2 31/48/15 18/47/15
f 31/48/15 30/50/8 19/49/2
f 30/50/8 29/32/8 20/33/8
f 9/51/16 25/54/16 32/52/16
f 25/54/17 26/56/17 31/55/17
f 26/56/18 27/58/44 30/57/19
f 27/58/21 28/29/45 29/31/22
f 2/59/24 17/109/24 24/60/24
f 17/62/25 18/110/25 23/63/25
f 23/63/26 18/110/46 19/65/27
f 22/66/29 19/65/47 20/23/30
f 37/67/32 40/111/32 36/68/32
f 39/72/33 40/111/33 37/67/33
f 16/73/2 40/75/2 39/28/2
f 13/36/5 14/35/5 38/76/5
f 34/78/34 39/112/34 38/79/34
f 45/84/35 48/8/35 47/85/35
f 47/90/36 48/113/36 42/91/36
f 44/95/37 45/84/37 46/86/37
f 3/19/5 46/94/5 47/88/5
f 34/97/38 33/114/38 14/98/38
f 35/100/39 36/115/39 16/30/39
f 4/102/40 44/116/40 43/103/40
f 41/104/41 42/117/41 8/105/41
